<svg width="131" height="25" viewBox="0 0 131 25" fill="none" xmlns="http://www.w3.org/2000/svg">
<path d="M118.355 0C116.625 0.53132 119.116 1.78105 117.773 2.11133C116.697 2.3697 115.232 1.95345 114.055 2.52051L113.695 1.44336C113.358 3.09457 112.116 3.81261 112.618 5.75098C111.685 6.16737 110.443 5.14809 109.926 5.15527C109.782 5.15538 107.529 6.17422 107.27 6.31836C106.221 6.92141 105.919 7.69689 106.429 8.80957L105.087 9.33398L105.445 7.5459C104.448 7.28764 104.555 8.35781 104.368 8.98242L102.581 8.61621L102.071 10.4541L99.7227 10.5693C98.4958 11.1654 100.197 12.4645 97.7559 13.6562C93.7208 15.6235 91.4733 11.6246 86.8926 13.9004C86.3254 14.1804 86.0667 15.1211 85.0977 15.3438C83.8484 15.6238 82.5484 15.2356 81.3135 15.5156C80.258 15.7526 79.4247 16.9234 77.8379 17.0957C73.4799 17.5695 70.2345 16.9093 66.2139 19.4365C65.8191 19.6807 65.7113 20.2908 65.5605 20.377C65.1154 20.621 64.3329 20.3557 63.7441 20.5352C63.0908 20.7362 62.6738 21.5899 61.4316 21.8125C59.3931 22.1785 58.9047 21.1888 57.5625 21.1455C56.5072 21.1168 56.1908 21.7124 55.4229 21.8418C54.5828 21.9854 53.0815 21.332 51.9111 21.5977C51.5004 21.6917 47.7613 23.3064 47.3809 23.5361C46.9687 23.788 46.3193 24.5065 45.8662 25H44.2109C43.9031 24.5079 43.8992 23.8205 43.7266 23.708C43.4824 23.5429 42.8502 23.9448 42.5127 23.873C41.4286 23.6432 40.4158 22.9185 38.9512 23.3564L38.4062 22.0566C36.1805 21.0443 33.7455 23.7588 32.4531 21.167C30.8882 22.6741 29.7682 21.174 28.5693 21.2744C27.7939 21.339 26.322 22.4658 25.5537 22.5664C24.7424 22.6741 24.3187 21.8556 23.4932 21.8555C22.7321 21.8555 22.3871 22.4588 21.9707 22.5449C17.9069 23.3634 13.0966 20.5273 9.20508 20.5918C6.98649 20.6277 3.84142 22.1357 1.97461 21.748C1.70191 21.6906 1.45782 21.3895 1.25684 21.1885L0.359375 22.2656V25H0V0H118.355Z" fill="white"/>
<path d="M131 0.00683594H130.898L129.455 1.79492C128.005 0.0863867 126.21 1.07001 124.293 0.402344C123.546 0.581879 123.718 1.88793 123.726 2.5127L122.656 0H131V0.00683594Z" fill="white"/>
</svg>
