<svg width="122" height="47" viewBox="0 0 122 47" fill="none" xmlns="http://www.w3.org/2000/svg">
<path d="M121.433 46.4648C121.129 44.8439 120.065 45.4729 119.175 45.1689C118.849 45.0531 118.958 44.5401 118.748 44.5254C118.545 44.5109 118.14 44.8652 117.728 44.7783C117.134 44.655 114.703 40.6834 114.341 39.8291C113.95 38.9246 113.328 38.1789 113.863 37.2383C113.176 37.0647 112.416 37.9108 111.866 37.8457C111.338 37.7806 111.048 36.4424 109.891 37.043C108.581 37.7303 109.811 39.1481 110.245 40.125C107.033 40.4795 107.778 39.8215 106.794 37.9766C106.273 37.0069 105.701 37.578 105.18 37.3682C104.854 37.2378 104.615 36.674 104.21 36.5654C103.595 36.3991 102.661 37.0645 101.931 36.8691L102.64 34.127L104.456 34.3359C104.123 33.4679 104.297 33.2288 104.818 32.5342H103.371V30.7256C102.278 31.4347 101.807 30.5011 101.315 30.4287C100.867 30.3566 100.577 30.9284 100.237 30.9863C99.8248 31.0513 99.1808 30.6243 99.0361 30.7256C98.8913 30.8281 98.3703 33.4459 97.2275 33.6201L96.3301 29.2705L95.6064 28.9238L92.8857 29.6475L93.0664 28.207C92.4514 28.4024 92.7983 29.9942 91.9883 29.6475C91.4029 29.4017 91.5678 26.832 91.4385 26.7676C91.1635 26.6446 90.49 26.9338 90.0703 26.6807C89.846 26.5432 89.8601 25.8264 89.4766 25.7686C89.1798 25.7257 88.6808 26.2099 88.2686 25.9785C88.2035 25.9424 87.2366 24.9391 87.2051 24.8643C86.8867 24.2058 87.2048 23.1633 87.1035 22.418C85.5695 22.4686 85.7647 22.9753 85.6562 24.2197C84.8096 24.3934 84.614 23.3733 83.9482 23.1924C83.116 22.9682 81.5819 23.3661 80.4531 22.3965L79.5195 23.5039L78.2539 20.9785C77.1685 23.0407 76.5889 22.0492 75.0693 22.4834C74.3964 22.679 73.5858 24.2347 72.457 24.1045C72.1459 23.6703 70.6847 22.8737 70.5762 22.6855C70.3664 22.331 70.5536 21.6944 70.3076 21.3398C69.9599 20.8408 68.1084 20.8186 68.3037 19.1689L65.6045 20.5146C64.5769 20.4423 64.4898 19.234 63.8096 18.7637C63.0855 18.2719 59.171 19.3496 57.9844 19.5088C57.1958 19.6173 55.0987 19.4663 54.8154 19.5674C54.2872 19.7483 54.2646 21.0142 53.1357 20.6162L53.8525 22.2441L53.498 22.6064C51.8627 22.8959 51.4502 24.4367 49.627 23.6338C48.5344 23.149 48.0421 20.2263 47.6152 19.0898C47.3113 18.2938 46.3988 18.1844 46.9922 17.0049H45.8994L46.2617 15.5576C45.7258 15.0015 43.2874 18.2496 43.1934 15.5508L40.4873 16.2812V14.834L42.9912 14.7979C42.8752 11.853 40.3785 10.4923 37.5928 10.4922L38.3164 9.05273L36.5576 9.10352C36.4129 9.71857 36.3768 10.6512 35.4219 10.4922L35.002 8.02539L32.8887 7.59766L33.084 6.5127L30.7256 5.7959C31.2104 6.44715 30.4213 7.13459 29.8135 7.24316C29.6326 7.27211 29.676 6.66443 29.3721 6.53418C27.8597 5.89017 26.4197 5.72351 25.1172 4.34863C24.8639 6.44717 23.4165 5.28936 22.0488 5.07227V6.88184C22.7797 6.72265 25.2546 6.86725 25.291 7.78613C25.3489 9.06657 21.3856 6.78185 20.9639 7.24316C20.6238 9.25486 22.888 7.90965 22.3887 9.87793C22.0914 11.0569 19.3212 10.3415 19.5889 13.1416C19.6904 14.2048 20.45 13.8142 20.5947 14.4727L19.5166 15.1963L21.6367 15.2471L21.6797 17.7285L19.8779 17.0049C19.82 18.1191 19.2413 18.8364 18.0693 18.8076L18.2715 17.0127C17.613 15.6884 16.1445 17.5478 15.4209 15.1309C14.9362 13.5172 15.8617 12.1062 15.0078 10.4854C14.7322 10.1308 11.5918 9.63184 10.7598 9.31348C10.0002 9.02388 9.50814 7.96694 8.31445 8.32129C8.03283 8.04562 8.75558 6.0936 9.13184 5.87598C9.46471 5.6806 10.0368 5.89735 10.377 5.6875C10.6157 5.54215 10.8836 4.54479 11.9033 4.6748C11.6935 3.64729 12.1133 1.82396 10.6084 1.5127C9.68237 1.31736 9.49416 2.31547 9.29883 2.43164C8.54625 2.85858 6.81653 2.21472 8.31445 4.33496L5.6582 5.00781C3.63216 3.24941 3.00287 0.441493 0 0H121.433V46.4648Z" fill="white"/>
</svg>
