<svg width="119" height="45" viewBox="0 0 119 45" fill="none" xmlns="http://www.w3.org/2000/svg">
<path d="M118.245 45H118.23V44.4648H118.245C117.941 42.8439 116.877 43.4729 115.987 43.1689C115.662 43.0531 115.77 42.5401 115.561 42.5254C115.358 42.5109 114.953 42.8652 114.54 42.7783C113.947 42.655 111.515 38.6834 111.153 37.8291C110.763 36.9246 110.14 36.1789 110.676 35.2383C109.988 35.0647 109.229 35.9108 108.679 35.8457C108.15 35.7806 107.861 34.4424 106.703 35.043C105.394 35.7303 106.623 37.1481 107.058 38.125C103.845 38.4795 104.59 37.8215 103.606 35.9766C103.085 35.0069 102.513 35.578 101.992 35.3682C101.667 35.2378 101.428 34.674 101.022 34.5654C100.407 34.3991 99.474 35.0645 98.7432 34.8691L99.4521 32.127L101.269 32.3359C100.936 31.4679 101.11 31.2288 101.631 30.5342H100.184V28.7256C99.0909 29.4347 98.62 28.5011 98.1279 28.4287C97.6794 28.3566 97.3899 28.9284 97.0498 28.9863C96.6373 29.0513 95.9933 28.6243 95.8486 28.7256C95.7038 28.8281 95.1828 31.4459 94.04 31.6201L93.1426 27.2705L92.4189 26.9238L89.6982 27.6475L89.8789 26.207C89.2639 26.4024 89.6108 27.9942 88.8008 27.6475C88.2154 27.4017 88.3803 24.832 88.251 24.7676C87.976 24.6446 87.3025 24.9338 86.8828 24.6807C86.6585 24.5432 86.6726 23.8264 86.2891 23.7686C85.9923 23.7257 85.4933 24.2099 85.0811 23.9785C85.016 23.9424 84.0491 22.9391 84.0176 22.8643C83.6992 22.2058 84.0173 21.1633 83.916 20.418C82.382 20.4686 82.5772 20.9753 82.4688 22.2197C81.6221 22.3934 81.4265 21.3733 80.7607 21.1924C79.9285 20.9682 78.3944 21.3661 77.2656 20.3965L76.332 21.5039L75.0664 18.9785C73.981 21.0407 73.4014 20.0492 71.8818 20.4834C71.2089 20.679 70.3983 22.2347 69.2695 22.1045C68.9584 21.6703 67.4972 20.8737 67.3887 20.6855C67.1789 20.331 67.3661 19.6944 67.1201 19.3398C66.7724 18.8408 64.9209 18.8186 65.1162 17.1689L62.417 18.5146C61.3894 18.4423 61.3023 17.234 60.6221 16.7637C59.898 16.2719 55.9835 17.3496 54.7969 17.5088C54.0083 17.6173 51.9112 17.4663 51.6279 17.5674C51.0997 17.7483 51.0771 19.0142 49.9482 18.6162L50.665 20.2441L50.3105 20.6064C48.6752 20.8959 48.2627 22.4367 46.4395 21.6338C45.3469 21.149 44.8546 18.2263 44.4277 17.0898C44.1238 16.2938 43.2113 16.1844 43.8047 15.0049H42.7119L43.0742 13.5576C42.5383 13.0015 40.0999 16.2496 40.0059 13.5508L37.2998 14.2812V12.834L39.8037 12.7979C39.6877 9.85304 37.191 8.49226 34.4053 8.49219L35.1289 7.05273L33.3701 7.10352C33.2254 7.71857 33.1893 8.65125 32.2344 8.49219L31.8145 6.02539L29.7012 5.59766L29.8965 4.5127L27.5381 3.7959C28.0229 4.44715 27.2338 5.13459 26.626 5.24316C26.4451 5.27211 26.4885 4.66443 26.1846 4.53418C24.6722 3.89017 23.2322 3.72351 21.9297 2.34863C21.6764 4.44717 20.229 3.28936 18.8613 3.07227V4.88184C19.5922 4.72265 22.0671 4.86725 22.1035 5.78613C22.1614 7.06657 18.1981 4.78185 17.7764 5.24316C17.4363 7.25486 19.7005 5.90965 19.2012 7.87793C18.9039 9.05688 16.1337 8.34146 16.4014 11.1416C16.5029 12.2048 17.2625 11.8142 17.4072 12.4727L16.3291 13.1963L18.4492 13.2471L18.4922 15.7285L16.6904 15.0049C16.6325 16.1191 16.0538 16.8364 14.8818 16.8076L15.084 15.0127C14.4255 13.6884 12.957 15.5478 12.2334 13.1309C11.7487 11.5172 12.6742 10.1062 11.8203 8.48535C11.5447 8.13078 8.40434 7.63184 7.57227 7.31348C6.81267 7.02388 6.32064 5.96694 5.12695 6.32129C4.84533 6.04562 5.56808 4.0936 5.94434 3.87598C6.27721 3.6806 6.84935 3.89735 7.18945 3.6875C7.42816 3.54215 7.69611 2.54479 8.71582 2.6748C8.55893 1.90657 8.75398 0.693429 8.2334 0H118.245V45Z" fill="white"/>
<path d="M6.39355 0C6.26901 0.196836 6.18982 0.38496 6.11133 0.431641C5.35875 0.858584 3.62903 0.214717 5.12695 2.33496L2.4707 3.00781C1.45424 2.12563 0.789523 0.979058 0 0H6.39355Z" fill="white"/>
</svg>
