<svg width="131" height="26" viewBox="0 0 131 26" fill="none" xmlns="http://www.w3.org/2000/svg">
<path d="M117.355 0C115.625 0.53132 118.116 1.78105 116.773 2.11133C115.697 2.3697 114.232 1.95345 113.055 2.52051L112.695 1.44336C112.358 3.09457 111.116 3.81261 111.618 5.75098C110.685 6.16737 109.443 5.14809 108.926 5.15527C108.782 5.15538 106.529 6.17422 106.27 6.31836C105.221 6.92141 104.919 7.69689 105.429 8.80957L104.087 9.33398L104.445 7.5459C103.448 7.28764 103.555 8.35781 103.368 8.98242L101.581 8.61621L101.071 10.4541L98.7227 10.5693C97.4958 11.1654 99.1965 12.4645 96.7559 13.6562C92.7208 15.6235 90.4733 11.6246 85.8926 13.9004C85.3254 14.1804 85.0667 15.1211 84.0977 15.3438C82.8484 15.6238 81.5484 15.2356 80.3135 15.5156C79.258 15.7526 78.4247 16.9234 76.8379 17.0957C72.4799 17.5695 69.2345 16.9093 65.2139 19.4365C64.8191 19.6807 64.7113 20.2908 64.5605 20.377C64.1154 20.621 63.3329 20.3557 62.7441 20.5352C62.0908 20.7362 61.6738 21.5899 60.4316 21.8125C58.3931 22.1785 57.9047 21.1888 56.5625 21.1455C55.5072 21.1168 55.1908 21.7124 54.4229 21.8418C53.5828 21.9854 52.0815 21.332 50.9111 21.5977C50.5004 21.6917 46.7613 23.3064 46.3809 23.5361C45.7347 23.931 44.5071 25.4742 44.3633 25.4961C42.8269 25.6756 43.0136 23.895 42.7266 23.708C42.4824 23.5429 41.8502 23.9448 41.5127 23.873C40.4286 23.6432 39.4158 22.9185 37.9512 23.3564L37.4062 22.0566C35.1805 21.0443 32.7455 23.7588 31.4531 21.167C29.8882 22.6741 28.7682 21.174 27.5693 21.2744C26.7939 21.339 25.322 22.4658 24.5537 22.5664C23.7424 22.6741 23.3187 21.8556 22.4932 21.8555C21.7321 21.8555 21.3871 22.4588 20.9707 22.5449C16.9069 23.3634 12.0966 20.5273 8.20508 20.5918C5.98649 20.6277 2.84142 22.1357 0.974609 21.748C0.701912 21.6906 0.457816 21.3895 0.256836 21.1885L0 21.4961V0H117.355Z" fill="white"/>
<path d="M131 0.00683594H129.898L128.455 1.79492C127.005 0.0863867 125.21 1.07001 123.293 0.402344C122.546 0.581879 122.718 1.88793 122.726 2.5127L121.656 0H131V0.00683594Z" fill="white"/>
</svg>
