<?xml version="1.0" encoding="UTF-8"?>
<svg id="Layer_1" xmlns="http://www.w3.org/2000/svg" version="1.1" viewBox="0 0 812 150">
  <!-- Generator: Adobe Illustrator 29.7.1, SVG Export Plug-In . SVG Version: 2.1.1 Build 8)  -->
  <g>
    <path d="M749.4,119.9l25.1-90.1h11.9l25.1,90.1h-11.6l-19.5-71.1-19.5,71.1h-11.6ZM761.1,98.2l2.7-10.4h33.3l2.7,10.4h-38.7Z"/>
    <path d="M660.6,119.9l1.6-90.1h10.6l17.7,44.6,17.7-44.6h10.6l1.6,90.1h-11.3l-1.1-61-12.6,34.1h-9.7l-12.6-34.1-1.1,61h-11.3Z"/>
    <path d="M575.3,119.9V29.8h53.4v10.4h-50.3l8.2-8.2v43.4l-8.2-8.2h35.2v10.4h-35.2l8.2-8.2v48.5l-8.2-8.2h50.3v10.4h-53.4Z"/>
    <path d="M484.8,119.9V29.8h26.9c6.7,0,12,.9,15.9,2.6,4,1.7,6.8,4.5,8.6,8.4,1.7,3.9,2.6,9.1,2.6,15.5s-.9,12.2-2.6,16.1c-1.7,3.8-4.6,6.5-8.6,8.1-3.9,1.6-9.2,2.4-15.9,2.4h-23.8v-10.4h23.8c4.1,0,7.3-.4,9.6-1.1,2.3-.8,3.9-2.4,4.8-4.7.9-2.3,1.4-5.8,1.4-10.4s-.5-7.5-1.4-9.8c-.9-2.4-2.5-4.1-4.8-5-2.3-1-5.4-1.5-9.6-1.5h-15.7v79.7h-11.3ZM529.9,119.9l-30.6-44.4h13.2l30.5,44.4h-13.1Z"/>
    <path d="M420.3,121.5c-7.3,0-13.1-1.4-17.3-4.2-4.2-2.8-7.2-7.2-9-13.4-1.8-6.2-2.7-14.3-2.7-24.5v-9c0-10.2.9-18.4,2.7-24.5,1.8-6.2,4.8-10.6,9-13.4,4.3-2.8,10.1-4.2,17.3-4.2s13,1.4,17.2,4.2c4.3,2.8,7.3,7.2,9.1,13.4,1.8,6.2,2.7,14.3,2.7,24.5v9c0,10.2-.9,18.4-2.7,24.5-1.8,6.2-4.8,10.6-9.1,13.4-4.2,2.8-9.9,4.2-17.2,4.2ZM420.3,111.1c4.6,0,8.1-.9,10.7-2.8,2.6-2,4.4-5.2,5.4-9.8,1.1-4.7,1.7-11,1.7-19.1v-9c0-8.1-.6-14.5-1.7-19-1.1-4.7-2.9-7.9-5.4-9.8-2.6-2-6.1-2.9-10.7-2.9s-8.2,1-10.8,2.9c-2.6,1.9-4.4,5.1-5.4,9.8-1.1,4.6-1.6,10.9-1.6,19v9c0,8.1.5,14.5,1.6,19.1,1.1,4.6,3,7.8,5.5,9.8,2.6,1.9,6.2,2.8,10.7,2.8Z"/>
    <path d="M305.1,119.9V29.8h53.4v10.4h-50.3l8.2-8.2v43.4l-8.2-8.2h35.2v10.4h-35.2l8.2-8.2v48.5l-8.2-8.2h50.3v10.4h-53.4Z"/>
    <path d="M234.6,119.9V29.8h11.3v90.1h-11.3ZM207.2,40.2v-10.4h66v10.4h-66Z"/>
  </g>
  <g>
    <path d="M91.4,0c.2,1,.1,2.2.1,3.3,0,3,0,6,.3,9s.6,2.3.8,3.5,0,1.7.1,2.5c.2,1.6.5,2.7.3,4.4s-1,2.8-.9,4.2.7,1.9.4,3.2-.7,1.2-.8,1.9c-.1,1.1.4,2.1.5,3.2.2,2-.5,3.5-.9,5.3s.3,3.4.7,4.6,1.2,1.7,1.5,2.9c.4,2,.5,4,.8,5.9s.3,1.1.4,1.7c.1,1.3-.1,2.6-.2,3.9-.2,4.6.8,9.2.2,14s-.5,2.3-.6,3.4c-.1,2,.2,4.1,0,6.1s-.6,2.5-.7,3.7,0,1.6-.2,2.5c-.5,2.7-1.4,6-2.2,8.6s-4.6,7-7.4,9.4-2.9,2.4-4.2,2.4-1.8-.5-2.7-.6c-1.7-.1-2.4.6-4.2,0-3.5-1.2-4-2.4-6.3-4.9s-5.3-5.6-7-9.4-.9-3.3-1.7-4.7-.8-1-1-1.6-.3-1.5-.6-2.2-.9-1.2-1.3-1.9c-1.5-2.4-2.4-5.7-3.2-8.4s-.6-3.7-1-5.4-.7-1.6-.9-2.4-.2-1.6-.5-2.4-.9-1.2-1.4-1.9c-1.4-1.9-2.6-4.2-5.1-4.9s-1.5-.2-2.3-.4-1.9-.8-2.9-1c-2.4-.5-4.4,0-6.8-.4s-3.3-1.1-5.2-1.8-4.7-.9-7-1.4c-3.8-.7-7.7-1.8-11.5-2.3s-4.6-.3-6.9-.1V6c.6-.1,1.2-.1,1.8-.1,1.5,0,3.4.3,4.8.2s2.6-.7,3.8-.9,1.5-.1,2.2-.3c2.8-.5,5.1-1.6,8.1-2s3-.7,4.7-1.1,4.1-.7,5.6-1.9h60.3Z"/>
    <path d="M136.1,0c0,.8-.3,1.7-.6,2.4-.6,1.3-2,1.9-2.2,3.5s0,1.4,0,2c-.1,1.3-1.6,3.3-2.2,4.5s-.5,1.3-.8,1.9-1.1,1.4-1.2,2.3c-.1,1.5.4,1.8-.5,3.3-1.7,2.8-2.9,5.6-3,9s.3,3.3.2,4.9-.4,2-.3,3.2,1,1.8,1.5,2.7c.7,1.3.9,2.4,1.4,3.7,1.1,2.8,2.9,5,4.4,7.5s1.1,2.2,1.7,3.2,1.9,2.4,2.7,3.7c2,3.2,3.9,10.6,3.2,14.2s-.6,1.8-.7,2.6.2,1.5.2,2.3,0,2.1-.1,2.9-.5,1.5-.5,2.3c0,1.5,1.4,4.9,2,6.5s.7,2.5,1.1,3.6,1.7,3,2.4,4.6.6,1.9,1.3,2.6.9.8,1.3,1.2c.7.8,1.2,1.9,2.3,2.2v47h-54.1c-.3-.8-.2-1.6-.3-2.4s-.3-1.6-.3-2.3.5-1.9.5-2.8-.2-1.6-.2-2.4c0-1.5,1.4-4.9,1.9-6.5s1-1.7,1-2.9-.2-1.4-.1-2.2.4-1.5.3-2.3c-.1-1.4-1.3-2.1-1.9-3.2-1.2-2.2-.4-3.9-.6-6.2s-.7-2.3-.9-3.4.5-3.2,1-4.5.9-1.8,1.2-2.7c.4-1.5.5-3.4.8-5,.7-3.3,2-6.5,2.4-9.8s.3-5.2.5-7.8.5-3.2.6-4.8c.2-3.2-.8-5.8-.7-8.9s.7-7.1,1-10.7,0-1.2,0-1.8c.1-1.3.9-2.5,1.2-3.7.5-2.1.4-4.3.8-6.4s.7-3.8,1.2-4.8c.9-1.7,2.2-3,2.7-4.9s.7-2.7.7-3.5-.2-1.7,0-2.6c.2-1.9,1.5-3.4.8-5.4s-.8-1.3-1.1-2.1-.4-1.7-.6-2.5c-.7-2.1-1.8-3.6-2.7-5.5s-1.5-4.7-1.5-5.9.3-1.8.3-2.6-.5-2.2-.5-3.3.7-2.8.6-4.3h32.3Z"/>
    <path d="M0,94v-38.3c1.2-.6,2.6-.3,3.8,0,5.8,1,17,4.6,21.5,8.1s3.2,3.8,6.3,4,3.3-.3,5,0c3.3.6,4.8,3.3,5.2,6.4s-.3,2.6,0,3.9.5,1.3.6,2c.5,2,.8,4.3,2.1,6s1.2,1,1.7,1.7c.8,1.2,2.2,3.3,2.6,4.6,1.4,4,1.3,7.3,4.9,10.3s3.2,1.2,4.3,2.9,2.6,5.6,3.1,7.5-.5,2.3-.9,3.9.2,4.1-.5,6c-1.1,3.2-4,6.3-6.9,8s-5.8,1.6-8.5,2.2-3,1.4-5.2,1.2-2,0-3.4,0c-4.2.2-8.8-.3-11.6-3.8s-1.2-2.9-1.9-4.8-1.7-3.4-2.2-5.6c-1.3-5.2-1.3-10.9-2.7-16s-3-5.9-4.9-7.2-5-2.2-6.6-2.3-1,0-1.5,0c-1.5-.2-3.1-.4-4.4-1.1Z"/>
    <path d="M78.9,149.9H0v-51.1c2.3-.4,4.7.6,6.6,1.7,5.7,3.4,9.5,8.2,9.1,15.1s-1.2,3.5-1.3,5.2,0,5.4.4,6.7c1.4,5.4,5.6,10.4,11.2,11.8s2.7.4,4,.7,3.1.9,4.6.9c2.6,0,4.4-.2,7,.1s7.5,1,11.2,1.6,1.7.7,2.5.8c1.6.2,2.7-.7,4.5-.3s1.6,1.8,2.7,2.4,1.3.3,2,.4c1.7.4,2.2,2.2,4.1,2.3s.9-.1,1.4-.1c1.1,0,2.1.5,3.2.4s1.9-.8,2.9-.8,2.4,1.2,2.9,2.2Z"/>
    <path d="M149.9,86.3c-1.1-.6-1-1.8-1.4-2.8s-.7-1.7-.9-2.5c-.4-1.7-.2-3.2-.2-4.9-.2-4.8-2.4-9.3-3.8-13.7s-2.3-7.5-2.5-10.3,0-1.8,0-2.6c-.1-1.7-1.6-3.9-2.3-5.5s-.7-4-1-6.2-.8-3.9-.7-6,.5-2.3.7-3.4c.4-2.3.3-4.5.8-6.9s1.4-3.5,2.6-5.8.9-2.2,1.5-3.3c1.6-3.3,4.1-6.8,6.5-9.6s.4-.4.7-.6v84Z"/>
  </g>
</svg>